<svg width="24" height="25" viewBox="0 0 24 25" fill="none" xmlns="http://www.w3.org/2000/svg">
<path fill-rule="evenodd" clip-rule="evenodd" d="M16 9.5C16 10.5609 15.5786 11.5783 14.8284 12.3284C14.0783 13.0786 13.0609 13.5 12 13.5C10.9391 13.5 9.92172 13.0786 9.17157 12.3284C8.42143 11.5783 8 10.5609 8 9.5C8 8.43913 8.42143 7.42172 9.17157 6.67157C9.92172 5.92143 10.9391 5.5 12 5.5C13.0609 5.5 14.0783 5.92143 14.8284 6.67157C15.5786 7.42172 16 8.43913 16 9.5ZM14 9.5C14 10.0304 13.7893 10.5391 13.4142 10.9142C13.0391 11.2893 12.5304 11.5 12 11.5C11.4696 11.5 10.9609 11.2893 10.5858 10.9142C10.2107 10.5391 10 10.0304 10 9.5C10 8.96957 10.2107 8.46086 10.5858 8.08579C10.9609 7.71071 11.4696 7.5 12 7.5C12.5304 7.5 13.0391 7.71071 13.4142 8.08579C13.7893 8.46086 14 8.96957 14 9.5Z" fill="#1B1B1B"/>
<path fill-rule="evenodd" clip-rule="evenodd" d="M12 1.5C5.925 1.5 1 6.425 1 12.5C1 18.575 5.925 23.5 12 23.5C18.075 23.5 23 18.575 23 12.5C23 6.425 18.075 1.5 12 1.5ZM3 12.5C3 14.59 3.713 16.514 4.908 18.042C5.74744 16.9401 6.83015 16.0471 8.07164 15.4327C9.31312 14.8183 10.6798 14.4991 12.065 14.5C13.4324 14.4984 14.7821 14.8091 16.0111 15.4084C17.2402 16.0077 18.3162 16.8797 19.157 17.958C20.0234 16.8216 20.6068 15.4952 20.8589 14.0886C21.111 12.682 21.0244 11.2355 20.6065 9.86898C20.1886 8.50243 19.4512 7.25505 18.4555 6.23004C17.4598 5.20503 16.2343 4.43186 14.8804 3.97451C13.5265 3.51716 12.0832 3.38877 10.6699 3.59997C9.25652 3.81117 7.91379 4.35589 6.75277 5.18905C5.59175 6.02222 4.64581 7.11987 3.99323 8.3912C3.34065 9.66252 3.00018 11.071 3 12.5ZM12 21.5C9.93391 21.5033 7.93014 20.7926 6.328 19.488C6.97281 18.5646 7.83119 17.8107 8.83008 17.2905C9.82896 16.7702 10.9388 16.499 12.065 16.5C13.1772 16.499 14.2735 16.7635 15.263 17.2713C16.2524 17.7792 17.1064 18.5158 17.754 19.42C16.1395 20.767 14.1026 21.5033 12 21.5Z" fill="#1B1B1B"/>
</svg>
