<svg width="24" height="25" viewBox="0 0 24 25" fill="none" xmlns="http://www.w3.org/2000/svg">
<path fill-rule="evenodd" clip-rule="evenodd" d="M14.304 15.9262C12.9635 16.9973 11.2638 17.5144 9.55403 17.3714C7.84421 17.2284 6.25405 16.4361 5.11013 15.1573C3.96622 13.8785 3.3554 12.2102 3.40311 10.4951C3.45083 8.77994 4.15346 7.14819 5.36671 5.93495C6.57995 4.7217 8.2117 4.01907 9.92683 3.97135C11.642 3.92363 13.3102 4.53446 14.5891 5.67837C15.8679 6.82228 16.6602 8.41245 16.8032 10.1223C16.9462 11.8321 16.429 13.5318 15.358 14.8722L20.485 19.9982C20.5582 20.0665 20.617 20.1488 20.6578 20.2403C20.6985 20.3318 20.7205 20.4305 20.7222 20.5306C20.724 20.6308 20.7056 20.7303 20.6681 20.8231C20.6306 20.916 20.5747 21.0003 20.5039 21.0712C20.4331 21.142 20.3487 21.1978 20.2559 21.2353C20.163 21.2728 20.0635 21.2912 19.9634 21.2895C19.8633 21.2877 19.7645 21.2658 19.673 21.225C19.5816 21.1843 19.4992 21.1255 19.4309 21.0522L14.304 15.9262ZM6.42357 14.373C5.69374 13.6431 5.19667 12.7132 4.99517 11.7009C4.79367 10.6886 4.89679 9.63926 5.29149 8.68552C5.68619 7.73178 6.35477 6.91646 7.21272 6.34258C8.07066 5.76871 9.07948 5.46205 10.1117 5.46135C11.1438 5.46066 12.1531 5.76596 13.0118 6.33868C13.8705 6.9114 14.5402 7.72582 14.9362 8.67903C15.3322 9.63223 15.4367 10.6814 15.2366 11.694C15.0364 12.7066 14.5406 13.6372 13.8117 14.3681L13.8068 14.373L13.8018 14.377C12.8224 15.3541 11.4953 15.9025 10.1119 15.9018C8.72844 15.901 7.40188 15.3512 6.42357 14.373Z" fill="#9C9C9C"/>
</svg>
