<svg width="24" height="25" viewBox="0 0 24 25" fill="none" xmlns="http://www.w3.org/2000/svg">
<path fill-rule="evenodd" clip-rule="evenodd" d="M8.41801 3.75C8.69801 3.16 9.30101 2.75 10 2.75H14C14.698 2.75 15.301 3.16 15.582 3.75C16.265 3.756 16.798 3.787 17.274 3.973C17.8422 4.19527 18.3364 4.57301 18.7 5.063C19.067 5.556 19.239 6.19 19.476 7.061L19.513 7.197L20.103 9.364C20.4964 9.56248 20.8412 9.84518 21.113 10.192C21.735 10.989 21.845 11.938 21.735 13.026C21.627 14.082 21.295 15.412 20.879 17.077L20.852 17.182C20.589 18.235 20.375 19.09 20.122 19.757C19.856 20.453 19.52 21.023 18.965 21.456C18.411 21.889 17.776 22.076 17.037 22.166C16.328 22.25 15.447 22.25 14.362 22.25H9.63801C8.55301 22.25 7.67101 22.25 6.96301 22.165C6.22301 22.077 5.58901 21.889 5.03401 21.455C4.48001 21.023 4.14401 20.453 3.87801 19.757C3.62401 19.09 3.41101 18.235 3.14801 17.182L3.12101 17.077C2.70501 15.412 2.37201 14.082 2.26501 13.027C2.15501 11.937 2.26501 10.989 2.88601 10.192C3.16901 9.83 3.50801 9.562 3.89601 9.364L4.48601 7.197L4.52401 7.061C4.76101 6.19 4.93301 5.556 5.30001 5.062C5.66373 4.57238 6.1579 4.195 6.72601 3.973C7.20201 3.787 7.73401 3.755 8.41801 3.75ZM8.41901 5.253C7.75701 5.26 7.49201 5.285 7.27201 5.371C6.96597 5.49068 6.69982 5.69411 6.50401 5.958C6.32801 6.195 6.22401 6.526 5.93401 7.593L5.58001 8.889C6.61801 8.75 7.95801 8.75 9.62201 8.75H14.377C16.042 8.75 17.382 8.75 18.419 8.889L18.066 7.592C17.775 6.525 17.672 6.194 17.496 5.957C17.3002 5.69311 17.034 5.48968 16.728 5.37C16.508 5.284 16.242 5.259 15.58 5.252C15.4379 5.55066 15.214 5.80293 14.9344 5.97956C14.6547 6.1562 14.3308 6.24996 14 6.25H10C9.66925 6.24996 9.34528 6.1562 9.06564 5.97956C8.786 5.80293 8.56214 5.55066 8.42001 5.252M10 4.25C9.9337 4.25 9.87011 4.27634 9.82323 4.32322C9.77635 4.37011 9.75001 4.4337 9.75001 4.5C9.75001 4.5663 9.77635 4.62989 9.82323 4.67678C9.87011 4.72366 9.9337 4.75 10 4.75H14C14.0663 4.75 14.1299 4.72366 14.1768 4.67678C14.2237 4.62989 14.25 4.5663 14.25 4.5C14.25 4.4337 14.2237 4.37011 14.1768 4.32322C14.1299 4.27634 14.0663 4.25 14 4.25H10ZM5.70001 10.386C4.79001 10.518 4.34901 10.758 4.07001 11.116C3.79001 11.473 3.66501 11.958 3.75801 12.874C3.85301 13.81 4.15801 15.034 4.59201 16.774C4.87001 17.882 5.06201 18.65 5.28201 19.224C5.49201 19.778 5.69901 20.071 5.95901 20.274C6.21801 20.476 6.55201 20.605 7.14201 20.676C7.75201 20.749 8.54201 20.75 9.68601 20.75H14.316C15.459 20.75 16.251 20.749 16.86 20.676C17.45 20.606 17.784 20.476 18.043 20.274C18.303 20.071 18.509 19.778 18.721 19.224C18.939 18.65 19.132 17.882 19.409 16.774C19.844 15.034 20.149 13.81 20.243 12.874C20.337 11.958 20.211 11.472 19.932 11.115C19.653 10.758 19.212 10.518 18.301 10.386C17.371 10.252 16.109 10.25 14.316 10.25H9.68601C7.89301 10.25 6.63101 10.252 5.70101 10.386" fill="#1B1B1B"/>
</svg>
